<svg width="48" height="54" viewBox="0 0 48 54" fill="none" xmlns="http://www.w3.org/2000/svg">
<path d="M20.8966 0.839243C22.817 -0.279748 25.183 -0.279747 27.1034 0.839243L44.8966 11.2071C46.817 12.3261 48 14.3941 48 16.6321V37.3679C48 39.6059 46.817 41.6739 44.8966 42.7929L27.1034 53.1608C25.183 54.2797 22.817 54.2797 20.8966 53.1608L3.1034 42.7929C1.18301 41.6739 0 39.6059 0 37.3679V16.6321C0 14.3941 1.18301 12.3261 3.1034 11.2071L20.8966 0.839243Z" fill="#431865"/>
<path d="M20.8966 0.839243C22.817 -0.279748 25.183 -0.279747 27.1034 0.839243L44.8966 11.2071C46.817 12.3261 48 14.3941 48 16.6321V37.3679C48 39.6059 46.817 41.6739 44.8966 42.7929L27.1034 53.1608C25.183 54.2797 22.817 54.2797 20.8966 53.1608L3.1034 42.7929C1.18301 41.6739 0 39.6059 0 37.3679V16.6321C0 14.3941 1.18301 12.3261 3.1034 11.2071L20.8966 0.839243Z" fill="url(#paint0_linear_18_204)"/>
<path fill-rule="evenodd" clip-rule="evenodd" d="M21.6714 14.612L10.9629 14.609L10.9587 29.5079L21.0465 29.5107C22.6952 29.5111 23.7369 31.2902 23.5287 32.9257C23.3501 34.3293 22.4597 36.0115 21.0448 36.0111L15.4578 36.0095L15.4565 40.5102L22.4404 40.5122C26.0566 40.5132 28.3386 37.1173 28.3398 32.927C28.341 28.7367 24.927 27.339 24.927 27.339C24.927 27.339 28.3417 26.0984 28.3428 22.0633C28.3439 18.0281 25.5772 14.6131 21.6714 14.612ZM20.5838 19.2676L15.6175 19.2662L15.6158 25.1637L20.5821 25.165C20.5821 25.165 23.3757 25.0106 23.3765 22.2171C23.3773 19.4235 20.5838 19.2676 20.5838 19.2676Z" fill="white"/>
<path fill-rule="evenodd" clip-rule="evenodd" d="M38.3601 34.3214L35.2184 43.6001L32.0767 34.3214L33.3001 19.3082H37.1368L38.3601 34.3214ZM37.0924 33.6224L35.2335 39.8421L33.3695 33.6224L34.1729 22.1619L35.2335 20.7212L36.289 22.1619L37.0924 33.6224Z" fill="white"/>
<path fill-rule="evenodd" clip-rule="evenodd" d="M36.2257 32.5669L35.2335 40.0525L34.2114 32.5669L34.6035 20.601H35.8335L36.2257 32.5669ZM35.7446 32.45L35.2335 37.7375L34.6924 32.45L34.8973 22.8796L35.2335 20.7212L35.5398 22.8796L35.7446 32.45Z" fill="white"/>
<path fill-rule="evenodd" clip-rule="evenodd" d="M38.3823 13.9607L35.2295 11.2511L32.0767 13.9607L33.3044 18.3448H37.1546L38.3823 13.9607ZM37.1764 14.2807L35.2296 12.6067L33.2828 14.2807L34.0409 16.9891H36.4184L37.1764 14.2807Z" fill="white"/>
<defs>
<linearGradient id="paint0_linear_18_204" x1="24" y1="-0.969072" x2="24" y2="54.9691" gradientUnits="userSpaceOnUse">
<stop stop-color="#431865"/>
<stop offset="1" stop-color="#8823D7"/>
</linearGradient>
</defs>
</svg>
