<svg width="48" height="54" viewBox="0 0 48 54" fill="none" xmlns="http://www.w3.org/2000/svg">
<path fill-rule="evenodd" clip-rule="evenodd" d="M20.8966 0.839243C22.817 -0.279748 25.183 -0.279747 27.1034 0.839243L44.8966 11.2071C46.817 12.3261 48 14.3941 48 16.6321V37.3679C48 39.6059 46.817 41.6739 44.8966 42.7929L27.1034 53.1608C25.183 54.2797 22.817 54.2797 20.8966 53.1608L3.1034 42.7929C1.18301 41.6739 0 39.6059 0 37.3679V16.6321C0 14.3941 1.18301 12.3261 3.1034 11.2071L20.8966 0.839243ZM38.3602 34.3214L35.2184 43.6001L32.0767 34.3214L33.3001 19.3082H37.1368L38.3602 34.3214ZM35.1808 39.6663L34.2114 32.567L34.5701 21.6225L34.1729 22.1619L33.3695 33.6224L35.1808 39.6663ZM35.8657 21.5842L36.289 22.1619L37.0924 33.6224L35.2837 39.674L36.2257 32.567L35.8657 21.5842ZM35.2335 20.7213L34.8973 22.8796L34.6924 32.4501L35.2335 37.7376L35.7446 32.4501L35.5398 22.8796L35.2336 20.7214L35.2335 20.7213ZM38.3823 13.9606L35.2295 11.251L32.0767 13.9606L33.3044 18.3448H37.1546L38.3823 13.9606ZM37.1765 14.2806L35.2296 12.6067L33.2828 14.2806L34.0409 16.9891H36.4184L37.1765 14.2806ZM10.9629 14.609L21.6714 14.612C25.5772 14.6131 28.3439 18.0281 28.3428 22.0633C28.3417 26.0984 24.927 27.339 24.927 27.339C24.927 27.339 28.341 28.7367 28.3398 32.927C28.3386 37.1173 26.0566 40.5132 22.4404 40.5122L15.4565 40.5102L15.4578 36.0095L21.0448 36.0111C22.4597 36.0115 23.3501 34.3293 23.5287 32.9257C23.7369 31.2902 22.6952 29.5111 21.0465 29.5107L10.9587 29.5079L10.9629 14.609ZM15.6175 19.2662L20.5838 19.2676C20.5838 19.2676 23.3773 19.4235 23.3765 22.2171C23.3757 25.0106 20.5821 25.165 20.5821 25.165L15.6158 25.1637L15.6175 19.2662Z" fill="url(#paint0_linear_95_2181)"/>
<defs>
<linearGradient id="paint0_linear_95_2181" x1="24" y1="-0.969072" x2="24" y2="54.9691" gradientUnits="userSpaceOnUse">
<stop stop-color="#431865"/>
<stop offset="1" stop-color="#8823D7"/>
</linearGradient>
</defs>
</svg>
