<svg width="131" height="31" viewBox="0 0 131 31" fill="none" xmlns="http://www.w3.org/2000/svg">
<path d="M47.571 22.9701C46.8693 22.7002 46.2062 22.5653 45.5816 22.5653C44.9648 22.5653 44.4829 22.6964 44.1359 22.9585C43.7889 23.2207 43.6154 23.5831 43.6154 24.0457C43.6154 24.6086 43.9084 25.0443 44.4944 25.3527C44.7566 25.4838 45.0419 25.6071 45.3503 25.7228C45.6664 25.8307 45.9826 25.9541 46.2987 26.0929C46.6149 26.2317 46.904 26.3898 47.1662 26.5671C47.4283 26.7445 47.6404 26.9912 47.8023 27.3073C47.9642 27.6158 48.0452 28.0129 48.0452 28.4986C48.0452 28.9767 47.9103 29.3854 47.6404 29.7246C47.3705 30.0639 47.0428 30.2952 46.6573 30.4186C46.2794 30.5343 45.8361 30.5921 45.3272 30.5921C44.3788 30.5921 43.5691 30.3569 42.8983 29.8866L42.9561 29.794C43.2106 29.9945 43.5383 30.1603 43.9393 30.2914C44.3479 30.4147 44.7643 30.4764 45.1884 30.4764C45.813 30.4764 46.345 30.3338 46.7845 30.0485C47.2317 29.7555 47.4553 29.3275 47.4553 28.7647C47.4553 28.1478 47.1623 27.6659 46.5763 27.3189C46.3141 27.1647 46.025 27.022 45.7089 26.891C45.4004 26.7599 45.0881 26.6249 44.772 26.4861C44.4559 26.3396 44.1667 26.1777 43.9046 26.0004C43.3185 25.6148 43.0255 25.0674 43.0255 24.358C43.0255 23.7951 43.2145 23.3402 43.5923 22.9932C43.9701 22.6385 44.5368 22.4612 45.2925 22.4612C46.0558 22.4612 46.8308 22.5923 47.6173 22.8544L47.571 22.9701Z" fill="#580C93"/>
<path d="M49.6951 27.7584C49.6951 28.7145 49.8608 29.4162 50.1924 29.8634C50.5317 30.3106 50.975 30.5343 51.5225 30.5343C52.2936 30.5343 52.9798 30.4186 53.5813 30.1873L53.6159 30.2682C52.9991 30.5073 52.3013 30.6268 51.5225 30.6268C50.7514 30.6268 50.123 30.3955 49.6372 29.9328C49.1515 29.4702 48.9086 28.7569 48.9086 27.7931C48.9086 26.8293 49.163 26.0813 49.6719 25.5493C50.1808 25.0173 50.8285 24.7512 51.615 24.7512C52.2473 24.7512 52.7793 24.9402 53.2111 25.318C53.6429 25.6958 53.8588 26.2548 53.8588 26.9951C53.8588 27.0336 53.8588 27.0722 53.8588 27.1107H49.7298C49.7066 27.3189 49.6951 27.5348 49.6951 27.7584ZM53.0723 27.0182C53.0646 26.278 52.922 25.7305 52.6444 25.3758C52.3668 25.0211 52.0083 24.8438 51.5688 24.8438C51.1293 24.8438 50.736 25.0365 50.389 25.4221C50.0498 25.8076 49.8339 26.3396 49.7413 27.0182H53.0723Z" fill="#580C93"/>
<path d="M57.3867 24.8438C56.8393 24.8438 56.3805 25.1059 56.0104 25.6303C55.648 26.1546 55.4668 26.8794 55.4668 27.8047C55.4668 28.73 55.6326 29.4162 55.9641 29.8634C56.3034 30.3106 56.7468 30.5343 57.2942 30.5343C57.9805 30.5343 58.5896 30.4186 59.1216 30.1873L59.1563 30.2682C58.6089 30.5073 57.9689 30.6268 57.2364 30.6268C56.5039 30.6268 55.8947 30.3955 55.409 29.9328C54.9232 29.4702 54.6803 28.7569 54.6803 27.7931C54.6803 26.8293 54.9347 26.0813 55.4437 25.5493C55.9526 25.0173 56.6003 24.7512 57.3867 24.7512C57.8263 24.7512 58.2311 24.8515 58.6012 25.052C58.979 25.2524 59.2566 25.557 59.4339 25.9657H58.6937C58.578 25.5879 58.4007 25.3064 58.1617 25.1214C57.9303 24.9363 57.672 24.8438 57.3867 24.8438Z" fill="#580C93"/>
<path d="M61.0583 29.2504C61.0583 29.8596 61.2202 30.249 61.5441 30.4186C61.6983 30.4957 61.8949 30.5343 62.134 30.5343C62.6197 30.5343 63.0515 30.3492 63.4294 29.9791C63.8149 29.609 64.0231 29.2658 64.0539 28.9497V24.7975H64.8635V29.7593C64.8635 29.9829 64.9059 30.1564 64.9908 30.2798C65.0833 30.3955 65.1758 30.4571 65.2684 30.4649L65.3956 30.488H65.7541V30.5805H65.0486C64.7325 30.5805 64.4896 30.5111 64.3199 30.3723C64.158 30.2335 64.0732 30.0947 64.0655 29.956L64.0539 29.7593V29.262C63.9151 29.5936 63.6684 29.9058 63.3137 30.1988C62.959 30.4841 62.5696 30.6268 62.1455 30.6268C61.7291 30.6268 61.386 30.5882 61.1161 30.5111C60.854 30.4263 60.6651 30.3106 60.5494 30.1641C60.3489 29.9251 60.2487 29.6167 60.2487 29.2389V24.7975H61.0583V29.2504Z" fill="#580C93"/>
<path d="M68.5458 25.2948V25.052C68.1988 25.1908 67.8827 25.4722 67.5974 25.8963C67.3121 26.3127 67.1617 26.7059 67.1463 27.076V30.5805H66.3367V24.7975H67.1463V26.6365C67.2697 26.1893 67.5048 25.7691 67.8518 25.3758C68.1988 24.9749 68.592 24.7667 69.0316 24.7512H69.0778C69.232 24.7512 69.3593 24.8052 69.4595 24.9132C69.5674 25.0134 69.6214 25.1406 69.6214 25.2948C69.6214 25.4491 69.5674 25.5763 69.4595 25.6765C69.3593 25.7768 69.232 25.8269 69.0778 25.8269C68.9236 25.8269 68.7964 25.7768 68.6961 25.6765C68.5959 25.5763 68.5458 25.4491 68.5458 25.2948Z" fill="#580C93"/>
<path d="M70.9296 27.7584C70.9296 28.7145 71.0953 29.4162 71.4269 29.8634C71.7662 30.3106 72.2095 30.5343 72.757 30.5343C73.5281 30.5343 74.2143 30.4186 74.8157 30.1873L74.8504 30.2682C74.2336 30.5073 73.5358 30.6268 72.757 30.6268C71.9859 30.6268 71.3575 30.3955 70.8717 29.9328C70.386 29.4702 70.1431 28.7569 70.1431 27.7931C70.1431 26.8293 70.3975 26.0813 70.9064 25.5493C71.4153 25.0173 72.063 24.7512 72.8495 24.7512C73.4818 24.7512 74.0138 24.9402 74.4456 25.318C74.8774 25.6958 75.0933 26.2548 75.0933 26.9951C75.0933 27.0336 75.0933 27.0722 75.0933 27.1107H70.9643C70.9411 27.3189 70.9296 27.5348 70.9296 27.7584ZM74.3068 27.0182C74.2991 26.278 74.1565 25.7305 73.8789 25.3758C73.6013 25.0211 73.2428 24.8438 72.8033 24.8438C72.3637 24.8438 71.9705 25.0365 71.6235 25.4221C71.2842 25.8076 71.0683 26.3396 70.9758 27.0182H74.3068Z" fill="#580C93"/>
<path d="M85.6725 30.5805H84.7125V22.6H82.7116V22.4843H87.685V22.6H85.6725V30.5805Z" fill="#580C93"/>
<path d="M89.4512 30.5805C89.135 30.5805 88.8922 30.5111 88.7225 30.3723C88.5606 30.2335 88.4758 30.0947 88.4681 29.956L88.4565 29.7593V24.7975H89.2661V29.7593C89.2661 29.9829 89.3085 30.1564 89.3933 30.2798C89.4859 30.3955 89.5746 30.4571 89.6594 30.4649L89.7982 30.488H90.1567V30.5805H89.4512ZM88.5259 23.5021C88.4334 23.4096 88.3871 23.2939 88.3871 23.1551C88.3871 23.0163 88.4334 22.9007 88.5259 22.8082C88.6184 22.7079 88.7341 22.6578 88.8729 22.6578C89.0117 22.6578 89.1273 22.7079 89.2199 22.8082C89.3201 22.9007 89.3702 23.0163 89.3702 23.1551C89.3702 23.2939 89.3201 23.4096 89.2199 23.5021C89.1273 23.5946 89.0117 23.6409 88.8729 23.6409C88.7341 23.6409 88.6184 23.5946 88.5259 23.5021Z" fill="#580C93"/>
<path d="M93.2143 24.8438C92.6668 24.8438 92.208 25.1059 91.8379 25.6303C91.4755 26.1546 91.2943 26.8794 91.2943 27.8047C91.2943 28.73 91.4601 29.4162 91.7917 29.8634C92.1309 30.3106 92.5743 30.5343 93.1218 30.5343C93.808 30.5343 94.4172 30.4186 94.9492 30.1873L94.9839 30.2682C94.4364 30.5073 93.7964 30.6268 93.0639 30.6268C92.3314 30.6268 91.7223 30.3955 91.2365 29.9328C90.7507 29.4702 90.5078 28.7569 90.5078 27.7931C90.5078 26.8293 90.7623 26.0813 91.2712 25.5493C91.7801 25.0173 92.4278 24.7512 93.2143 24.7512C93.6538 24.7512 94.0586 24.8515 94.4287 25.052C94.8065 25.2524 95.0841 25.557 95.2615 25.9657H94.5213C94.4056 25.5879 94.2282 25.3064 93.9892 25.1214C93.7579 24.9363 93.4996 24.8438 93.2143 24.8438Z" fill="#580C93"/>
<path d="M97.0015 21.906V27.6659L99.5461 24.7975H99.6617L97.7765 26.9257L100.263 30.5805H99.4535L97.3138 27.4346L97.0015 27.7931V30.5805H96.1919V21.906H97.0015Z" fill="#580C93"/>
<path d="M101.448 27.7584C101.448 28.7145 101.614 29.4162 101.946 29.8634C102.285 30.3106 102.728 30.5343 103.276 30.5343C104.047 30.5343 104.733 30.4186 105.335 30.1873L105.369 30.2682C104.753 30.5073 104.055 30.6268 103.276 30.6268C102.505 30.6268 101.876 30.3955 101.391 29.9328C100.905 29.4702 100.662 28.7569 100.662 27.7931C100.662 26.8293 100.916 26.0813 101.425 25.5493C101.934 25.0173 102.582 24.7512 103.368 24.7512C104.001 24.7512 104.533 24.9402 104.965 25.318C105.396 25.6958 105.612 26.2548 105.612 26.9951C105.612 27.0336 105.612 27.0722 105.612 27.1107H101.483C101.46 27.3189 101.448 27.5348 101.448 27.7584ZM104.826 27.0182C104.818 26.278 104.675 25.7305 104.398 25.3758C104.12 25.0211 103.762 24.8438 103.322 24.8438C102.883 24.8438 102.489 25.0365 102.142 25.4221C101.803 25.8076 101.587 26.3396 101.495 27.0182H104.826Z" fill="#580C93"/>
<path d="M106.376 24.89V24.7975H106.619V23.6409H107.428V24.7975H109.198V24.89H107.428V29.1001C107.428 29.6013 107.482 29.9637 107.59 30.1873C107.706 30.4109 107.941 30.5227 108.296 30.5227C108.658 30.5227 109.024 30.4494 109.395 30.3029L109.429 30.3955C109.044 30.542 108.6 30.6152 108.099 30.6152C107.606 30.6152 107.236 30.515 106.989 30.3145C106.742 30.1063 106.619 29.6976 106.619 29.0885V24.89H106.376Z" fill="#580C93"/>
<path d="M47.571 22.9701C46.8693 22.7002 46.2062 22.5653 45.5816 22.5653C44.9648 22.5653 44.4829 22.6964 44.1359 22.9585C43.7889 23.2207 43.6154 23.5831 43.6154 24.0457C43.6154 24.6086 43.9084 25.0443 44.4944 25.3527C44.7566 25.4838 45.0419 25.6071 45.3503 25.7228C45.6664 25.8307 45.9826 25.9541 46.2987 26.0929C46.6149 26.2317 46.904 26.3898 47.1662 26.5671C47.4283 26.7445 47.6404 26.9912 47.8023 27.3073C47.9642 27.6158 48.0452 28.0129 48.0452 28.4986C48.0452 28.9767 47.9103 29.3854 47.6404 29.7246C47.3705 30.0639 47.0428 30.2952 46.6573 30.4186C46.2794 30.5343 45.8361 30.5921 45.3272 30.5921C44.3788 30.5921 43.5691 30.3569 42.8983 29.8866L42.9561 29.794C43.2106 29.9945 43.5383 30.1603 43.9393 30.2914C44.3479 30.4147 44.7643 30.4764 45.1884 30.4764C45.813 30.4764 46.345 30.3338 46.7845 30.0485C47.2317 29.7555 47.4553 29.3275 47.4553 28.7647C47.4553 28.1478 47.1623 27.6659 46.5763 27.3189C46.3141 27.1647 46.025 27.022 45.7089 26.891C45.4004 26.7599 45.0881 26.6249 44.772 26.4861C44.4559 26.3396 44.1667 26.1777 43.9046 26.0004C43.3185 25.6148 43.0255 25.0674 43.0255 24.358C43.0255 23.7951 43.2145 23.3402 43.5923 22.9932C43.9701 22.6385 44.5368 22.4612 45.2925 22.4612C46.0558 22.4612 46.8308 22.5923 47.6173 22.8544L47.571 22.9701Z" stroke="#580C93"/>
<path d="M49.6951 27.7584C49.6951 28.7145 49.8608 29.4162 50.1924 29.8634C50.5317 30.3106 50.975 30.5343 51.5225 30.5343C52.2936 30.5343 52.9798 30.4186 53.5813 30.1873L53.6159 30.2682C52.9991 30.5073 52.3013 30.6268 51.5225 30.6268C50.7514 30.6268 50.123 30.3955 49.6372 29.9328C49.1515 29.4702 48.9086 28.7569 48.9086 27.7931C48.9086 26.8293 49.163 26.0813 49.6719 25.5493C50.1808 25.0173 50.8285 24.7512 51.615 24.7512C52.2473 24.7512 52.7793 24.9402 53.2111 25.318C53.6429 25.6958 53.8588 26.2548 53.8588 26.9951C53.8588 27.0336 53.8588 27.0722 53.8588 27.1107H49.7298C49.7066 27.3189 49.6951 27.5348 49.6951 27.7584ZM53.0723 27.0182C53.0646 26.278 52.922 25.7305 52.6444 25.3758C52.3668 25.0211 52.0083 24.8438 51.5688 24.8438C51.1293 24.8438 50.736 25.0365 50.389 25.4221C50.0498 25.8076 49.8339 26.3396 49.7413 27.0182H53.0723Z" stroke="#580C93"/>
<path d="M57.3867 24.8438C56.8393 24.8438 56.3805 25.1059 56.0104 25.6303C55.648 26.1546 55.4668 26.8794 55.4668 27.8047C55.4668 28.73 55.6326 29.4162 55.9641 29.8634C56.3034 30.3106 56.7468 30.5343 57.2942 30.5343C57.9805 30.5343 58.5896 30.4186 59.1216 30.1873L59.1563 30.2682C58.6089 30.5073 57.9689 30.6268 57.2364 30.6268C56.5039 30.6268 55.8947 30.3955 55.409 29.9328C54.9232 29.4702 54.6803 28.7569 54.6803 27.7931C54.6803 26.8293 54.9347 26.0813 55.4437 25.5493C55.9526 25.0173 56.6003 24.7512 57.3867 24.7512C57.8263 24.7512 58.2311 24.8515 58.6012 25.052C58.979 25.2524 59.2566 25.557 59.4339 25.9657H58.6937C58.578 25.5879 58.4007 25.3064 58.1617 25.1214C57.9303 24.9363 57.672 24.8438 57.3867 24.8438Z" stroke="#580C93"/>
<path d="M61.0583 29.2504C61.0583 29.8596 61.2202 30.249 61.5441 30.4186C61.6983 30.4957 61.8949 30.5343 62.134 30.5343C62.6197 30.5343 63.0515 30.3492 63.4294 29.9791C63.8149 29.609 64.0231 29.2658 64.0539 28.9497V24.7975H64.8635V29.7593C64.8635 29.9829 64.9059 30.1564 64.9908 30.2798C65.0833 30.3955 65.1758 30.4571 65.2684 30.4649L65.3956 30.488H65.7541V30.5805H65.0486C64.7325 30.5805 64.4896 30.5111 64.3199 30.3723C64.158 30.2335 64.0732 30.0947 64.0655 29.956L64.0539 29.7593V29.262C63.9151 29.5936 63.6684 29.9058 63.3137 30.1988C62.959 30.4841 62.5696 30.6268 62.1455 30.6268C61.7291 30.6268 61.386 30.5882 61.1161 30.5111C60.854 30.4263 60.6651 30.3106 60.5494 30.1641C60.3489 29.9251 60.2487 29.6167 60.2487 29.2389V24.7975H61.0583V29.2504Z" stroke="#580C93"/>
<path d="M68.5458 25.2948V25.052C68.1988 25.1908 67.8827 25.4722 67.5974 25.8963C67.3121 26.3127 67.1617 26.7059 67.1463 27.076V30.5805H66.3367V24.7975H67.1463V26.6365C67.2697 26.1893 67.5048 25.7691 67.8518 25.3758C68.1988 24.9749 68.592 24.7667 69.0316 24.7512H69.0778C69.232 24.7512 69.3593 24.8052 69.4595 24.9132C69.5674 25.0134 69.6214 25.1406 69.6214 25.2948C69.6214 25.4491 69.5674 25.5763 69.4595 25.6765C69.3593 25.7768 69.232 25.8269 69.0778 25.8269C68.9236 25.8269 68.7964 25.7768 68.6961 25.6765C68.5959 25.5763 68.5458 25.4491 68.5458 25.2948Z" stroke="#580C93"/>
<path d="M70.9296 27.7584C70.9296 28.7145 71.0953 29.4162 71.4269 29.8634C71.7662 30.3106 72.2095 30.5343 72.757 30.5343C73.5281 30.5343 74.2143 30.4186 74.8157 30.1873L74.8504 30.2682C74.2336 30.5073 73.5358 30.6268 72.757 30.6268C71.9859 30.6268 71.3575 30.3955 70.8717 29.9328C70.386 29.4702 70.1431 28.7569 70.1431 27.7931C70.1431 26.8293 70.3975 26.0813 70.9064 25.5493C71.4153 25.0173 72.063 24.7512 72.8495 24.7512C73.4818 24.7512 74.0138 24.9402 74.4456 25.318C74.8774 25.6958 75.0933 26.2548 75.0933 26.9951C75.0933 27.0336 75.0933 27.0722 75.0933 27.1107H70.9643C70.9411 27.3189 70.9296 27.5348 70.9296 27.7584ZM74.3068 27.0182C74.2991 26.278 74.1565 25.7305 73.8789 25.3758C73.6013 25.0211 73.2428 24.8438 72.8033 24.8438C72.3637 24.8438 71.9705 25.0365 71.6235 25.4221C71.2842 25.8076 71.0683 26.3396 70.9758 27.0182H74.3068Z" stroke="#580C93"/>
<path d="M85.6725 30.5805H84.7125V22.6H82.7116V22.4843H87.685V22.6H85.6725V30.5805Z" stroke="#580C93"/>
<path d="M89.4512 30.5805C89.135 30.5805 88.8922 30.5111 88.7225 30.3723C88.5606 30.2335 88.4758 30.0947 88.4681 29.956L88.4565 29.7593V24.7975H89.2661V29.7593C89.2661 29.9829 89.3085 30.1564 89.3933 30.2798C89.4859 30.3955 89.5746 30.4571 89.6594 30.4649L89.7982 30.488H90.1567V30.5805H89.4512ZM88.5259 23.5021C88.4334 23.4096 88.3871 23.2939 88.3871 23.1551C88.3871 23.0163 88.4334 22.9007 88.5259 22.8082C88.6184 22.7079 88.7341 22.6578 88.8729 22.6578C89.0117 22.6578 89.1273 22.7079 89.2199 22.8082C89.3201 22.9007 89.3702 23.0163 89.3702 23.1551C89.3702 23.2939 89.3201 23.4096 89.2199 23.5021C89.1273 23.5946 89.0117 23.6409 88.8729 23.6409C88.7341 23.6409 88.6184 23.5946 88.5259 23.5021Z" stroke="#580C93"/>
<path d="M93.2143 24.8438C92.6668 24.8438 92.208 25.1059 91.8379 25.6303C91.4755 26.1546 91.2943 26.8794 91.2943 27.8047C91.2943 28.73 91.4601 29.4162 91.7917 29.8634C92.1309 30.3106 92.5743 30.5343 93.1218 30.5343C93.808 30.5343 94.4172 30.4186 94.9492 30.1873L94.9839 30.2682C94.4364 30.5073 93.7964 30.6268 93.0639 30.6268C92.3314 30.6268 91.7223 30.3955 91.2365 29.9328C90.7507 29.4702 90.5078 28.7569 90.5078 27.7931C90.5078 26.8293 90.7623 26.0813 91.2712 25.5493C91.7801 25.0173 92.4278 24.7512 93.2143 24.7512C93.6538 24.7512 94.0586 24.8515 94.4287 25.052C94.8065 25.2524 95.0841 25.557 95.2615 25.9657H94.5213C94.4056 25.5879 94.2282 25.3064 93.9892 25.1214C93.7579 24.9363 93.4996 24.8438 93.2143 24.8438Z" stroke="#580C93"/>
<path d="M97.0015 21.906V27.6659L99.5461 24.7975H99.6617L97.7765 26.9257L100.263 30.5805H99.4535L97.3138 27.4346L97.0015 27.7931V30.5805H96.1919V21.906H97.0015Z" stroke="#580C93"/>
<path d="M101.448 27.7584C101.448 28.7145 101.614 29.4162 101.946 29.8634C102.285 30.3106 102.728 30.5343 103.276 30.5343C104.047 30.5343 104.733 30.4186 105.335 30.1873L105.369 30.2682C104.753 30.5073 104.055 30.6268 103.276 30.6268C102.505 30.6268 101.876 30.3955 101.391 29.9328C100.905 29.4702 100.662 28.7569 100.662 27.7931C100.662 26.8293 100.916 26.0813 101.425 25.5493C101.934 25.0173 102.582 24.7512 103.368 24.7512C104.001 24.7512 104.533 24.9402 104.965 25.318C105.396 25.6958 105.612 26.2548 105.612 26.9951C105.612 27.0336 105.612 27.0722 105.612 27.1107H101.483C101.46 27.3189 101.448 27.5348 101.448 27.7584ZM104.826 27.0182C104.818 26.278 104.675 25.7305 104.398 25.3758C104.12 25.0211 103.762 24.8438 103.322 24.8438C102.883 24.8438 102.489 25.0365 102.142 25.4221C101.803 25.8076 101.587 26.3396 101.495 27.0182H104.826Z" stroke="#580C93"/>
<path d="M106.376 24.89V24.7975H106.619V23.6409H107.428V24.7975H109.198V24.89H107.428V29.1001C107.428 29.6013 107.482 29.9637 107.59 30.1873C107.706 30.4109 107.941 30.5227 108.296 30.5227C108.658 30.5227 109.024 30.4494 109.395 30.3029L109.429 30.3955C109.044 30.542 108.6 30.6152 108.099 30.6152C107.606 30.6152 107.236 30.515 106.989 30.3145C106.742 30.1063 106.619 29.6976 106.619 29.0885V24.89H106.376Z" stroke="#580C93"/>
<path fill-rule="evenodd" clip-rule="evenodd" d="M6.63907 4.97339H0V14.2104H6.25419C7.27636 14.2104 7.92245 15.3131 7.79369 16.3272C7.68318 17.1974 7.1314 17.9629 6.25419 17.9629H2.79033V20.7532H7.12016C9.36213 20.7532 10.7765 18.925 10.7765 16.3272C10.7765 13.7293 8.65965 12.8633 8.65965 12.8633C8.65965 12.8633 10.7765 12.0935 10.7765 9.59187C10.7765 7.09019 9.06058 4.97339 6.63907 4.97339ZM5.96554 7.85993H2.88655V11.5162H5.96554C5.96554 11.5162 7.69747 11.42 7.69747 9.68808C7.69747 7.95615 5.96554 7.85993 5.96554 7.85993Z" fill="#580C93"/>
<rect x="11.7511" y="4.97339" width="3.07899" height="9.81427" fill="#580C93"/>
<rect x="11.7511" y="17.6743" width="8.65965" height="3.07899" fill="#580C93"/>
<ellipse cx="29.0715" cy="12.8632" rx="1.34706" ry="1.53949" fill="#580C93"/>
<path fill-rule="evenodd" clip-rule="evenodd" d="M29.0715 20.7532C33.3227 20.7532 36.769 17.2208 36.769 12.8633C36.769 8.50582 33.3227 4.97339 29.0715 4.97339C24.8203 4.97339 21.374 8.50582 21.374 12.8633C21.374 17.2208 24.8203 20.7532 29.0715 20.7532ZM29.0715 17.6742C31.6222 17.6742 33.69 15.5203 33.69 12.8633C33.69 10.2063 31.6222 8.0524 29.0715 8.0524C26.5208 8.0524 24.453 10.2063 24.453 12.8633C24.453 15.5203 26.5208 17.6742 29.0715 17.6742Z" fill="#580C93"/>
<path d="M45.2565 4.97339C41.0942 5.07807 37.7515 8.56934 37.7515 12.8609C37.7515 17.1524 41.0942 20.6437 45.2565 20.7484H49.875V17.6677H45.2565C42.795 17.5626 40.8305 15.4507 40.8305 12.8609C40.8305 10.271 42.795 8.15915 45.2565 8.05406H46.796V11.5138H49.875V4.97339H45.2565Z" fill="#580C93"/>
<path fill-rule="evenodd" clip-rule="evenodd" d="M53.9232 5.06592H50.8442V19.9977L55.0779 14.6877L59.8342 20.6533H63.5451V20.6469L57.0022 12.7634L63.3906 5.06592H59.7717L53.9232 12.2822L53.9232 5.06592Z" fill="#580C93"/>
<path d="M74.1371 9.43738C74.1371 8.48587 73.8549 7.55573 73.3263 6.76458C72.7977 5.97343 72.0463 5.3568 71.1672 4.99268C70.2882 4.62855 69.3208 4.53328 68.3876 4.71891C67.4544 4.90454 66.5972 5.36273 65.9243 6.03555C65.2515 6.70837 64.7933 7.56559 64.6077 8.49882C64.4221 9.43205 64.5173 10.3994 64.8815 11.2784C65.2456 12.1575 65.8622 12.9089 66.6534 13.4375C67.4445 13.9661 68.3747 14.2483 69.3262 14.2483V11.4617C68.9258 11.4617 68.5344 11.343 68.2015 11.1206C67.8686 10.8981 67.6091 10.582 67.4559 10.2121C67.3027 9.84217 67.2626 9.43514 67.3407 9.04245C67.4188 8.64977 67.6116 8.28906 67.8947 8.00595C68.1779 7.72284 68.5386 7.53004 68.9312 7.45193C69.3239 7.37382 69.731 7.41391 70.1009 7.56713C70.4708 7.72034 70.7869 7.97981 71.0094 8.31271C71.2318 8.64562 71.3505 9.037 71.3505 9.43738H74.1371Z" fill="#580C93"/>
<path d="M69.3262 21.0798C69.958 21.0798 70.5835 20.9554 71.1672 20.7136C71.7509 20.4718 72.2813 20.1175 72.728 19.6707C73.1747 19.224 73.5291 18.6936 73.7709 18.1099C74.0127 17.5263 74.1371 16.9007 74.1371 16.2689C74.1371 15.6371 74.0127 15.0115 73.7709 14.4278C73.5291 13.8441 73.1747 13.3138 72.728 12.8671C72.2813 12.4203 71.7509 12.0659 71.1672 11.8242C70.5835 11.5824 69.958 11.4617 69.3262 11.4617V14.2445C69.592 14.2445 69.8553 14.2969 70.1009 14.3986C70.3465 14.5004 70.5696 14.6495 70.7576 14.8375C70.9456 15.0254 71.0947 15.2486 71.1964 15.4942C71.2982 15.7398 71.3505 16.003 71.3505 16.2689C71.3505 16.5347 71.2982 16.798 71.1964 17.0436C71.0947 17.2892 70.9456 17.5123 70.7576 17.7003C70.5696 17.8883 70.3465 18.0374 70.1009 18.1391C69.8553 18.2409 69.592 18.2932 69.3262 18.2932V21.0798Z" fill="#580C93"/>
<path d="M94.9593 12.8633C94.9593 17.2208 91.5131 20.7532 87.2619 20.7532H82.8358V14.3066H85.8186V17.6742H87.2619C89.8126 17.6742 91.8803 15.5203 91.8803 12.8633C91.8803 10.2063 89.8126 8.05238 87.2619 8.05238H85.8186V11.42H82.8358V4.97339H87.2619C91.5131 4.97339 94.9593 8.50582 94.9593 12.8633Z" fill="#580C93"/>
<path fill-rule="evenodd" clip-rule="evenodd" d="M116.117 20.7606L109.863 4.78833L103.608 20.7606H116.117ZM113.23 20.7606L109.959 12.2934L106.687 20.7606H113.23Z" fill="#580C93"/>
<path fill-rule="evenodd" clip-rule="evenodd" d="M130.375 4.78833H117.097V20.7606H120.176L120.176 10.5614L127.354 20.7606H130.375V4.78833ZM120.176 16.9118H117.097V20.7605H120.176V16.9118ZM119.791 4.78834L127.296 15.3724L127.296 4.78834H119.791Z" fill="#580C93"/>
<path fill-rule="evenodd" clip-rule="evenodd" d="M7.26358 4.34888H0.624512V13.5858H6.8787C7.90087 13.5858 8.54696 14.6886 8.4182 15.7026C8.30769 16.5729 7.75592 17.3384 6.8787 17.3384H3.41484V20.1287H7.74467C9.98665 20.1287 11.401 18.3005 11.401 15.7026C11.401 13.1047 9.28416 12.2388 9.28416 12.2388C9.28416 12.2388 11.401 11.469 11.401 8.96736C11.401 6.46568 9.68509 4.34888 7.26358 4.34888ZM6.59005 7.23542H3.51106V10.8917H6.59005C6.59005 10.8917 8.32198 10.7955 8.32198 9.06356C8.32198 7.33163 6.59005 7.23542 6.59005 7.23542Z" fill="black"/>
<rect x="12.3756" y="4.34888" width="3.07899" height="9.81427" fill="black"/>
<rect x="12.3756" y="17.0496" width="8.65965" height="3.07899" fill="black"/>
<ellipse cx="29.6961" cy="12.2387" rx="1.34706" ry="1.53949" fill="black"/>
<path fill-rule="evenodd" clip-rule="evenodd" d="M29.696 20.1287C33.9472 20.1287 37.3935 16.5963 37.3935 12.2388C37.3935 7.88131 33.9472 4.34888 29.696 4.34888C25.4448 4.34888 21.9985 7.88131 21.9985 12.2388C21.9985 16.5963 25.4448 20.1287 29.696 20.1287ZM29.696 17.0496C32.2467 17.0496 34.3145 14.8957 34.3145 12.2387C34.3145 9.58173 32.2467 7.42781 29.696 7.42781C27.1453 7.42781 25.0775 9.58173 25.0775 12.2387C25.0775 14.8957 27.1453 17.0496 29.696 17.0496Z" fill="black"/>
<path d="M45.881 4.34888C41.7187 4.45356 38.376 7.94483 38.376 12.2364C38.376 16.5279 41.7187 20.0192 45.881 20.1238H50.4995V17.0432H45.881C43.4195 16.9381 41.455 14.8262 41.455 12.2364C41.455 9.64652 43.4195 7.53464 45.881 7.42955H47.4205V10.8893H50.4995V4.34888H45.881Z" fill="black"/>
<path fill-rule="evenodd" clip-rule="evenodd" d="M54.5477 4.44141H51.4688V19.3732L55.7024 14.0632L60.4587 20.0288H64.1696V20.0224L57.6267 12.1389L64.0151 4.44141H60.3962L54.5477 11.6577L54.5477 4.44141Z" fill="black"/>
<path d="M74.7616 8.81263C74.7616 7.86112 74.4795 6.93098 73.9508 6.13983C73.4222 5.34867 72.6708 4.73205 71.7917 4.36792C70.9127 4.00379 69.9454 3.90852 69.0121 4.09415C68.0789 4.27978 67.2217 4.73798 66.5489 5.4108C65.876 6.08361 65.4178 6.94084 65.2322 7.87406C65.0466 8.80729 65.1419 9.77461 65.506 10.6537C65.8701 11.5328 66.4867 12.2841 67.2779 12.8128C68.069 13.3414 68.9992 13.6235 69.9507 13.6235V10.837C69.5503 10.837 69.1589 10.7183 68.826 10.4958C68.4931 10.2734 68.2336 9.95722 68.0804 9.58731C67.9272 9.21741 67.8871 8.81038 67.9652 8.4177C68.0433 8.02501 68.2361 7.66431 68.5193 7.38119C68.8024 7.09808 69.1631 6.90528 69.5558 6.82717C69.9484 6.74906 70.3555 6.78915 70.7254 6.94237C71.0953 7.09559 71.4114 7.35505 71.6339 7.68796C71.8563 8.02086 71.975 8.41225 71.975 8.81263H74.7616Z" fill="black"/>
<path d="M69.9507 20.455C70.5825 20.455 71.2081 20.3306 71.7917 20.0888C72.3754 19.8471 72.9058 19.4927 73.3525 19.046C73.7993 18.5992 74.1536 18.0689 74.3954 17.4852C74.6372 16.9015 74.7616 16.2759 74.7616 15.6441C74.7616 15.0124 74.6372 14.3868 74.3954 13.8031C74.1536 13.2194 73.7993 12.689 73.3525 12.2423C72.9058 11.7956 72.3754 11.4412 71.7917 11.1994C71.2081 10.9577 70.5825 10.837 69.9507 10.837V13.6198C70.2165 13.6198 70.4798 13.6721 70.7254 13.7739C70.971 13.8756 71.1941 14.0247 71.3821 14.2127C71.5701 14.4007 71.7192 14.6238 71.8209 14.8694C71.9227 15.115 71.975 15.3783 71.975 15.6441C71.975 15.91 71.9227 16.1732 71.8209 16.4188C71.7192 16.6644 71.5701 16.8876 71.3821 17.0756C71.1941 17.2635 70.971 17.4127 70.7254 17.5144C70.4798 17.6161 70.2165 17.6685 69.9507 17.6685V20.455Z" fill="black"/>
<path d="M79.0999 22.3225L80.8233 17.3371L80.0795 8.16244L79.0999 7.0091L78.1204 8.16244L77.3766 17.3371L79.0999 22.3225Z" fill="#BFA0E7"/>
<path d="M79.0999 0.832764L80.777 2.27297L80.1239 4.60329H78.0759L77.4229 2.27297L79.0999 0.832764Z" fill="#BFA0E7"/>
<path fill-rule="evenodd" clip-rule="evenodd" d="M81.5172 17.7509L79.0999 24.8901L76.6826 17.7509L77.6239 6.19946H80.5759L81.5172 17.7509ZM80.5418 17.2131L79.1115 21.9986L77.6773 17.2131L78.2955 8.39516L79.1115 7.28667L79.9236 8.39516L80.5418 17.2131Z" fill="#580C93"/>
<path fill-rule="evenodd" clip-rule="evenodd" d="M79.8748 16.401L79.1114 22.1605L78.325 16.401L78.6267 7.19409H79.573L79.8748 16.401ZM79.5047 16.311L79.1114 20.3794L78.6951 16.311L78.8527 8.94731L79.1114 7.28662L79.3471 8.94731L79.5047 16.311Z" fill="#580C93"/>
<path fill-rule="evenodd" clip-rule="evenodd" d="M81.5343 2.08471L79.1084 -9.48906e-05L76.6826 2.08471L77.6272 5.45801H80.5897L81.5343 2.08471ZM80.6064 2.33099L79.1084 1.04304L77.6105 2.33099L78.1938 4.41494H80.0231L80.6064 2.33099Z" fill="#580C93"/>
<path d="M95.5838 12.2388C95.5838 16.5963 92.1376 20.1287 87.8864 20.1287H83.4603V13.6821H86.4431V17.0497H87.8864C90.4371 17.0497 92.5049 14.8958 92.5049 12.2388C92.5049 9.58178 90.4371 7.42786 87.8864 7.42786H86.4431V10.7955H83.4603V4.34888H87.8864C92.1376 4.34888 95.5838 7.88131 95.5838 12.2388Z" fill="black"/>
<rect x="98.48" y="4.16382" width="3.07899" height="13.0857" fill="black"/>
<rect x="96.535" y="17.2566" width="6.73528" height="2.88655" fill="black"/>
<path fill-rule="evenodd" clip-rule="evenodd" d="M116.741 20.1361L110.487 4.16382L104.233 20.1361H116.741ZM113.855 20.136L110.583 11.6688L107.312 20.136H113.855Z" fill="black"/>
<path fill-rule="evenodd" clip-rule="evenodd" d="M120.416 4.16382L127.921 14.7478L127.921 4.16382H131V20.1361H127.978L120.801 9.9369L120.801 20.1361H117.722V4.16382H120.416ZM120.801 16.2873H117.722V20.136H120.801V16.2873Z" fill="black"/>
</svg>
